<svg width="18" height="19" viewBox="0 0 18 19" fill="none" xmlns="http://www.w3.org/2000/svg">
<path d="M11.121 12.0055C10.5584 12.5679 9.79549 12.8838 9 12.8838C8.20451 12.8838 7.44158 12.5679 6.879 12.0055M6.75 8.38446H6.7575M11.25 8.38446H11.2575M15.75 9.88446C15.75 10.7709 15.5754 11.6486 15.2362 12.4676C14.897 13.2865 14.3998 14.0306 13.773 14.6574C13.1462 15.2842 12.4021 15.7814 11.5831 16.1206C10.7642 16.4599 9.88642 16.6345 9 16.6345C8.11358 16.6345 7.23583 16.4599 6.41689 16.1206C5.59794 15.7814 4.85382 15.2842 4.22703 14.6574C3.60023 14.0306 3.10303 13.2865 2.76381 12.4676C2.42459 11.6486 2.25 10.7709 2.25 9.88446C2.25 8.09425 2.96116 6.37736 4.22703 5.11149C5.4929 3.84562 7.20979 3.13446 9 3.13446C10.7902 3.13446 12.5071 3.84562 13.773 5.11149C15.0388 6.37736 15.75 8.09425 15.75 9.88446Z" stroke="white" stroke-width="2" stroke-linecap="round" stroke-linejoin="round"/>
</svg>
