<svg width="16" height="16" viewBox="0 0 16 16" fill="none" xmlns="http://www.w3.org/2000/svg">
<path fill-rule="evenodd" clip-rule="evenodd" d="M8.01732 8.80048L7.23562 8.23763C6.91179 8.00505 6.83911 7.55444 7.07169 7.23142C7.30426 6.9076 7.75487 6.83411 8.07789 7.06749L8.85959 7.63035C9.18342 7.86292 9.2569 8.31353 9.02352 8.63655C8.79095 8.95957 8.34034 9.03306 8.01732 8.80048M10.9665 9.14692L11.3573 9.42875L13.5272 6.415C13.7339 6.12751 13.6693 5.72616 13.381 5.51943L12.4717 4.8637C12.2585 4.71107 11.9638 4.68281 11.7514 4.83624C11.3234 5.14553 10.7291 5.16249 10.2776 4.83705C9.82622 4.51161 9.65341 3.94229 9.81088 3.43919C9.88921 3.18885 9.76889 2.91832 9.5565 2.76489L8.6464 2.10997C8.35891 1.90243 7.95756 1.96784 7.75002 2.25533L5.58096 5.26909L5.97181 5.55092C6.29483 5.78349 6.36831 6.23411 6.13574 6.55712C5.90317 6.88014 5.45256 6.95363 5.12873 6.72106L4.73788 6.43922L2.47271 9.58461C2.26598 9.8729 2.33059 10.2734 2.61888 10.481L3.52818 11.1359C3.74137 11.2893 4.03612 11.3176 4.24851 11.1642C4.67651 10.8549 5.27086 10.8379 5.72228 11.1634C6.1737 11.4888 6.34651 12.0573 6.18904 12.5612C6.11071 12.8108 6.23103 13.0821 6.44342 13.2355L7.35352 13.8904C7.64101 14.0972 8.04236 14.0326 8.24989 13.7443L10.5143 10.5989L10.1234 10.3171C9.80038 10.0845 9.72689 9.63387 9.95947 9.31085C10.192 8.98783 10.6427 8.91435 10.9665 9.14692" fill="#C1C1C1"/>
<mask id="mask0" mask-type="alpha" maskUnits="userSpaceOnUse" x="2" y="1" width="12" height="14">
<path fill-rule="evenodd" clip-rule="evenodd" d="M8.01732 8.80048L7.23562 8.23763C6.91179 8.00505 6.83911 7.55444 7.07169 7.23142C7.30426 6.9076 7.75487 6.83411 8.07789 7.06749L8.85959 7.63035C9.18342 7.86292 9.2569 8.31353 9.02352 8.63655C8.79095 8.95957 8.34034 9.03306 8.01732 8.80048M10.9665 9.14692L11.3573 9.42875L13.5272 6.415C13.7339 6.12751 13.6693 5.72616 13.381 5.51943L12.4717 4.8637C12.2585 4.71107 11.9638 4.68281 11.7514 4.83624C11.3234 5.14553 10.7291 5.16249 10.2776 4.83705C9.82622 4.51161 9.65341 3.94229 9.81088 3.43919C9.88921 3.18885 9.76889 2.91832 9.5565 2.76489L8.6464 2.10997C8.35891 1.90243 7.95756 1.96784 7.75002 2.25533L5.58096 5.26909L5.97181 5.55092C6.29483 5.78349 6.36831 6.23411 6.13574 6.55712C5.90317 6.88014 5.45256 6.95363 5.12873 6.72106L4.73788 6.43922L2.47271 9.58461C2.26598 9.8729 2.33059 10.2734 2.61888 10.481L3.52818 11.1359C3.74137 11.2893 4.03612 11.3176 4.24851 11.1642C4.67651 10.8549 5.27086 10.8379 5.72228 11.1634C6.1737 11.4888 6.34651 12.0573 6.18904 12.5612C6.11071 12.8108 6.23103 13.0821 6.44342 13.2355L7.35352 13.8904C7.64101 14.0972 8.04236 14.0326 8.24989 13.7443L10.5143 10.5989L10.1234 10.3171C9.80038 10.0845 9.72689 9.63387 9.95947 9.31085C10.192 8.98783 10.6427 8.91435 10.9665 9.14692" fill="#3182ce"/>
</mask>
<g mask="url(#mask0)">
<rect x="-40" y="-40" width="96" height="96" fill="#3182ce"/>
</g>
</svg>
