<svg width="245" height="38" viewBox="0 0 245 38" fill="none" xmlns="http://www.w3.org/2000/svg">
<path d="M17.5312 37H10.2656V8.78125H0.960938V2.73438H26.8359V8.78125H17.5312V37ZM48.1875 37L46.8047 33.4375H46.6172C45.4141 34.9531 44.1719 36.0078 42.8906 36.6016C41.625 37.1797 39.9688 37.4688 37.9219 37.4688C35.4062 37.4688 33.4219 36.75 31.9688 35.3125C30.5312 33.875 29.8125 31.8281 29.8125 29.1719C29.8125 26.3906 30.7812 24.3438 32.7188 23.0312C34.6719 21.7031 37.6094 20.9688 41.5312 20.8281L46.0781 20.6875V19.5391C46.0781 16.8828 44.7188 15.5547 42 15.5547C39.9062 15.5547 37.4453 16.1875 34.6172 17.4531L32.25 12.625C35.2656 11.0469 38.6094 10.2578 42.2812 10.2578C45.7969 10.2578 48.4922 11.0234 50.3672 12.5547C52.2422 14.0859 53.1797 16.4141 53.1797 19.5391V37H48.1875ZM46.0781 24.8594L43.3125 24.9531C41.2344 25.0156 39.6875 25.3906 38.6719 26.0781C37.6562 26.7656 37.1484 27.8125 37.1484 29.2188C37.1484 31.2344 38.3047 32.2422 40.6172 32.2422C42.2734 32.2422 43.5938 31.7656 44.5781 30.8125C45.5781 29.8594 46.0781 28.5938 46.0781 27.0156V24.8594ZM67.4297 22.75L70.5469 18.7656L77.8828 10.7969H85.9453L75.5391 22.1641L86.5781 37H78.3281L70.7812 26.3828L67.7109 28.8438V37H60.5625V0.53125H67.7109V16.7969L67.3359 22.75H67.4297ZM101.18 15.3906C99.6641 15.3906 98.4766 15.875 97.6172 16.8438C96.7578 17.7969 96.2656 19.1562 96.1406 20.9219H106.172C106.141 19.1562 105.68 17.7969 104.789 16.8438C103.898 15.875 102.695 15.3906 101.18 15.3906ZM102.188 37.4688C97.9688 37.4688 94.6719 36.3047 92.2969 33.9766C89.9219 31.6484 88.7344 28.3516 88.7344 24.0859C88.7344 19.6953 89.8281 16.3047 92.0156 13.9141C94.2188 11.5078 97.2578 10.3047 101.133 10.3047C104.836 10.3047 107.719 11.3594 109.781 13.4688C111.844 15.5781 112.875 18.4922 112.875 22.2109V25.6797H95.9766C96.0547 27.7109 96.6562 29.2969 97.7812 30.4375C98.9062 31.5781 100.484 32.1484 102.516 32.1484C104.094 32.1484 105.586 31.9844 106.992 31.6562C108.398 31.3281 109.867 30.8047 111.398 30.0859V35.6172C110.148 36.2422 108.812 36.7031 107.391 37C105.969 37.3125 104.234 37.4688 102.188 37.4688Z" fill="#161E2E"/>
<path d="M130.195 37H126.211V6.27344H115.359V2.73438H141.047V6.27344H130.195V37ZM149.531 37H145.641V11.3125H149.531V37ZM145.312 4.35156C145.312 3.46094 145.531 2.8125 145.969 2.40625C146.406 1.98438 146.953 1.77344 147.609 1.77344C148.234 1.77344 148.773 1.98438 149.227 2.40625C149.68 2.82812 149.906 3.47656 149.906 4.35156C149.906 5.22656 149.68 5.88281 149.227 6.32031C148.773 6.74219 148.234 6.95312 147.609 6.95312C146.953 6.95312 146.406 6.74219 145.969 6.32031C145.531 5.88281 145.312 5.22656 145.312 4.35156ZM168.047 37.4688C164.328 37.4688 161.445 36.3281 159.398 34.0469C157.367 31.75 156.352 28.5078 156.352 24.3203C156.352 20.0234 157.383 16.7031 159.445 14.3594C161.523 12.0156 164.477 10.8438 168.305 10.8438C169.539 10.8438 170.773 10.9766 172.008 11.2422C173.242 11.5078 174.211 11.8203 174.914 12.1797L173.719 15.4844C172.859 15.1406 171.922 14.8594 170.906 14.6406C169.891 14.4062 168.992 14.2891 168.211 14.2891C162.992 14.2891 160.383 17.6172 160.383 24.2734C160.383 27.4297 161.016 29.8516 162.281 31.5391C163.562 33.2266 165.453 34.0703 167.953 34.0703C170.094 34.0703 172.289 33.6094 174.539 32.6875V36.1328C172.82 37.0234 170.656 37.4688 168.047 37.4688ZM184.5 23.8516C185.172 22.8984 186.195 21.6484 187.57 20.1016L195.867 11.3125H200.484L190.078 22.2578L201.211 37H196.5L187.43 24.8594L184.5 27.3906V37H180.656V0.53125H184.5V19.8672C184.5 20.7266 184.438 22.0547 184.312 23.8516H184.5ZM216.727 37.4688C212.93 37.4688 209.93 36.3125 207.727 34C205.539 31.6875 204.445 28.4766 204.445 24.3672C204.445 20.2266 205.461 16.9375 207.492 14.5C209.539 12.0625 212.281 10.8438 215.719 10.8438C218.938 10.8438 221.484 11.9062 223.359 14.0312C225.234 16.1406 226.172 18.9297 226.172 22.3984V24.8594H208.477C208.555 27.875 209.312 30.1641 210.75 31.7266C212.203 33.2891 214.242 34.0703 216.867 34.0703C219.633 34.0703 222.367 33.4922 225.07 32.3359V35.8047C223.695 36.3984 222.391 36.8203 221.156 37.0703C219.938 37.3359 218.461 37.4688 216.727 37.4688ZM215.672 14.1016C213.609 14.1016 211.961 14.7734 210.727 16.1172C209.508 17.4609 208.789 19.3203 208.57 21.6953H222C222 19.2422 221.453 17.3672 220.359 16.0703C219.266 14.7578 217.703 14.1016 215.672 14.1016ZM241.125 34.2578C241.812 34.2578 242.477 34.2109 243.117 34.1172C243.758 34.0078 244.266 33.8984 244.641 33.7891V36.7656C244.219 36.9688 243.594 37.1328 242.766 37.2578C241.953 37.3984 241.219 37.4688 240.562 37.4688C235.594 37.4688 233.109 34.8516 233.109 29.6172V14.3359H229.43V12.4609L233.109 10.8438L234.75 5.35938H237V11.3125H244.453V14.3359H237V29.4531C237 31 237.367 32.1875 238.102 33.0156C238.836 33.8438 239.844 34.2578 241.125 34.2578Z" fill="#3182CE"/>
</svg>
